<?xml version="1.0" standalone="no"?>
<!DOCTYPE svg PUBLIC "-//W3C//DTD SVG 20010904//EN"
 "http://www.w3.org/TR/2001/REC-SVG-20010904/DTD/svg10.dtd">
<svg version="1.0" xmlns="http://www.w3.org/2000/svg"
 width="512.000000pt" height="512.000000pt" viewBox="0 0 512.000000 512.000000"
 preserveAspectRatio="xMidYMid meet">

<g transform="translate(0.000000,512.000000) scale(0.100000,-0.100000)"
fill="#000000" stroke="none">
<path d="M1686 5104 c-172 -42 -333 -194 -382 -361 l-15 -53 -182 0 c-153 0
-186 -3 -206 -16 -32 -23 -51 -74 -51 -139 l0 -55 -187 0 c-213 0 -280 -11
-377 -62 -78 -41 -183 -146 -224 -224 -65 -124 -62 -42 -62 -1634 0 -1592 -3
-1510 62 -1634 41 -78 146 -183 224 -224 120 -62 109 -62 977 -62 718 0 791 1
817 17 55 32 67 112 26 160 l-24 28 -809 5 -808 5 -67 33 c-76 37 -120 82
-157 162 l-26 55 0 1455 0 1455 33 67 c37 76 82 120 162 157 52 25 65 26 248
29 l192 4 0 -61 c0 -129 34 -215 112 -288 89 -82 51 -78 858 -78 l715 0 57 28
c62 31 116 84 149 149 17 33 24 67 28 143 l6 100 195 0 c190 0 196 -1 251 -26
69 -33 127 -89 160 -155 l24 -49 5 -700 c4 -543 8 -705 18 -722 15 -26 61 -53
92 -53 37 0 81 30 96 65 12 29 14 145 14 682 0 375 -5 677 -10 718 -13 86 -71
211 -128 276 -55 61 -134 115 -218 147 -65 24 -82 26 -286 30 l-218 4 0 73 c0
64 -3 78 -24 102 l-24 28 -193 5 -192 5 -12 41 c-79 269 -366 434 -639 368z
m260 -228 c102 -47 169 -142 184 -260 16 -128 31 -136 260 -136 l170 0 0 -170
c0 -193 -8 -222 -65 -246 -50 -21 -1309 -21 -1359 0 -62 26 -66 40 -66 238 l0
178 171 0 c223 0 238 8 254 135 13 102 72 195 153 242 98 58 199 64 298 19z"/>
<path d="M693 3398 c-57 -28 -67 -122 -17 -169 l26 -24 1099 -3 c1223 -3 1145
-7 1175 65 19 43 5 93 -33 123 -25 20 -37 20 -1127 19 -741 0 -1108 -4 -1123
-11z"/>
<path d="M693 2758 c-57 -28 -67 -122 -17 -169 l26 -24 1099 -3 c1223 -3 1145
-7 1175 65 19 43 5 93 -33 123 -25 20 -37 20 -1127 19 -741 0 -1108 -4 -1123
-11z"/>
<path d="M4425 2681 c-86 -22 -114 -48 -967 -900 -472 -470 -862 -866 -867
-880 -22 -57 -162 -794 -156 -820 9 -36 42 -69 76 -76 27 -6 766 134 820 156
14 5 410 395 881 867 684 686 860 867 879 907 19 39 24 67 24 125 0 131 -10
148 -238 377 -159 161 -211 206 -251 224 -55 23 -152 33 -201 20z m108 -211
c6 0 90 -79 188 -176 189 -188 201 -207 175 -267 -8 -18 -363 -380 -837 -853
l-824 -820 -273 -54 c-150 -29 -275 -50 -279 -47 -3 4 18 129 47 279 l54 273
830 832 c563 563 839 833 856 836 14 2 31 3 38 1 8 -2 19 -4 25 -4z"/>
<path d="M693 2118 c-57 -28 -67 -122 -17 -169 l26 -24 1099 -3 c1223 -3 1145
-7 1175 65 19 43 5 93 -33 123 -25 20 -37 20 -1127 19 -741 0 -1108 -4 -1123
-11z"/>
</g>
</svg>
