<svg id="Capa_1" enable-background="new 0 0 512 512" height="512" viewBox="0 0 512 512" width="512" xmlns="http://www.w3.org/2000/svg"><g><g><path d="m109.346 465.838h293.307c66.11-46.289 109.347-123.009 109.347-209.838 0-141.385-114.615-256-256-256s-256 114.615-256 256c0 86.829 43.237 163.549 109.346 209.838z" fill="#2ebcf6"/></g><g><g><path d="m236.008 175.287c1.129-6.816 1.482-13.785.999-20.774-.728-10.537.423-21.036 3.311-31.029 2.889-9.988 7.524-19.477 13.766-28l26.96-36.813 11.385-15.546-29.186-21.375-11.385 15.546-26.96 36.813c-12.479 17.045-30.592 29.123-51.123 34.096-10.266 2.487-19.928 6.752-28.583 12.521-8.656 5.769-16.303 13.053-22.545 21.576l-24.155 32.984h137.516z" fill="#e1eaf9"/></g><g><path d="m290.971 47.665-31.617-23.155c-2.015-1.476-2.452-4.305-.977-6.32l5.343-7.296c1.476-2.015 4.305-2.452 6.32-.976l31.617 23.154c2.015 1.476 2.452 4.305.977 6.32l-5.343 7.296c-1.476 2.015-4.305 2.452-6.32.977z" fill="#d85e41"/></g><g><path d="m274.513 30.007 5.343-7.296c1.476-2.015 4.305-2.452 6.32-.976l-16.136-11.817c-2.015-1.476-4.844-1.038-6.32.976l-5.343 7.296c-1.476 2.015-1.038 4.844.976 6.32l16.136 11.817c-2.014-1.475-2.452-4.305-.976-6.32z" fill="#c04a27"/></g></g><g><g><g><path d="m129.162 39.607 17.802 7.374 42.156 17.462c9.76 4.043 20.078 6.296 30.466 6.734 10.393.436 20.865-.936 30.93-4.141 10.894-3.469 22.26-4.789 33.49-3.992 2.499.177 3.203 3.524.993 4.703l-7.665 4.089c-2.033 1.085-1.641 4.108.601 4.639l16.055 3.797-9.582 14.916c-1.393 2.169 1.009 4.771 3.282 3.556l15.971-8.542 4.193 29.956c.358 2.556 3.883 2.96 4.809.551l10.355-26.919 29.031 21.322c2.039 1.498 4.758-.634 3.79-2.972l-9.851-23.782c-.852-2.058 1.209-4.119 3.266-3.266l35.287 14.616c4.166 42.382-13.231 84.381-46.145 111.404l-72.625-30.082c-9.76-4.043-18.649-9.745-26.306-16.786s-14.092-15.416-18.942-24.799c-9.7-18.766-25.728-33.499-45.246-41.58l-42.157-17.463-17.802-7.374z" fill="#60b550"/></g><g><path d="m129.162 39.607 17.802 7.374 42.156 17.462c19.515 8.087 35.546 22.814 45.246 41.58 9.702 18.771 25.728 33.499 45.248 41.585l84.424 34.969c-6.985 10.627-15.591 20.28-25.642 28.535l-72.625-30.082c-9.76-4.043-18.649-9.745-26.306-16.786s-14.092-15.416-18.942-24.799c-9.7-18.766-25.728-33.499-45.246-41.58l-42.157-17.463-17.802-7.374z" fill="#389f4d"/></g><g><path d="m133.919 39.946-14.997 36.206c-.956 2.307-3.601 3.403-5.908 2.447l-8.355-3.461c-2.307-.956-3.403-3.601-2.447-5.908l14.997-36.206c.956-2.307 3.601-3.403 5.908-2.447l8.355 3.461c2.307.956 3.403 3.601 2.447 5.908z" fill="#d85e41"/></g><g><path d="m120.668 60.122-8.355-3.461c-2.307-.956-3.403-3.601-2.447-5.908l-7.654 18.478c-.956 2.307.14 4.952 2.447 5.908l8.355 3.461c2.307.956 4.952-.14 5.908-2.447l7.654-18.478c-.956 2.307-3.601 3.402-5.908 2.447z" fill="#c04a27"/></g></g></g><g><g><path d="m408.067 123.165c-3.574-9.769-8.849-18.919-15.662-26.99-13.626-16.143-21.104-36.589-21.1-57.714v-5.63-19.268h-18.088-18.088v19.269 5.63c.004 21.125-7.474 41.571-21.1 57.714-6.813 8.072-12.088 17.222-15.662 26.99-3.574 9.769-5.441 20.163-5.441 30.727v36.368c0 2.761 2.239 5 5 5h55.291 55.291c2.761 0 5-2.239 5-5v-36.368c0-10.565-1.867-20.959-5.441-30.728z" fill="#e1eaf9"/></g><g><path d="m329.101 195.261v-41.368c0-21.128 7.474-41.571 21.104-57.718 13.626-16.143 21.097-36.589 21.1-57.714v-5.63-19.268h-36.176v19.269 5.63c.004 21.125-7.474 41.571-21.1 57.714-6.813 8.072-12.088 17.222-15.662 26.99-3.574 9.769-5.441 20.163-5.441 30.727v36.368c0 2.761 2.239 5 5 5z" fill="#c5def8"/></g><g><path d="m372.811 18.087h-39.189c-2.497 0-4.522-2.024-4.522-4.522v-9.043c0-2.497 2.024-4.522 4.522-4.522h39.189c2.497 0 4.522 2.024 4.522 4.522v9.044c0 2.497-2.024 4.521-4.522 4.521z" fill="#d85e41"/></g><g><path d="m349.1 13.565v-9.043c0-2.497 2.025-4.522 4.522-4.522h-20c-2.497 0-4.522 2.024-4.522 4.522v9.044c0 2.497 2.025 4.522 4.522 4.522h20c-2.497-.001-4.522-2.025-4.522-4.523z" fill="#c04a27"/></g></g><g><path d="m106.571 278.503-7.238-89.708c-.666-8.257-7.9-14.411-16.158-13.745-8.257.666-14.411 7.9-13.745 16.158l7.238 89.708c.666 8.257 7.9 14.411 16.158 13.745 8.257-.667 14.411-7.901 13.745-16.158z" fill="#389f4d"/></g><g><path d="m405.429 278.503 7.238-89.708c.666-8.257 7.9-14.411 16.158-13.745 8.257.666 14.411 7.9 13.745 16.158l-7.238 89.708c-.666 8.257-7.9 14.411-16.158 13.745-8.257-.667-14.411-7.901-13.745-16.158z" fill="#389f4d"/></g><g><path d="m86 170 23.346 295.838c41.538 29.084 92.098 46.162 146.654 46.162s105.116-17.078 146.654-46.162l23.346-295.838z" fill="#85d249"/></g><g><path d="m109.346 465.838c41.538 29.084 92.098 46.162 146.654 46.162s105.116-17.078 146.654-46.162c-131.183 0-239.723-102.065-247.782-232.999l-.791-12.839h267.974l3.945-50h-340z" fill="#60b550"/></g><g><path d="m441 190.287h-370c-8.284 0-15-6.716-15-15 0-8.284 6.716-15 15-15h370c8.284 0 15 6.716 15 15 0 8.284-6.716 15-15 15z" fill="#a3ea6e"/></g><g><path d="m137.234 175.287c0-8.284 6.716-15 15-15h-81.234c-8.284 0-15 6.716-15 15s6.716 15 15 15h81.234c-8.284 0-15-6.716-15-15z" fill="#85d249"/></g><g><g><g><g><path d="m293.782 464.699 3.653-14.877c.393-1.601-.844-3.137-2.492-3.095l-25.56.651c-2.58.066-3.556-3.345-1.331-4.654l26.072-15.338-14.004-11.486c-1.993-1.635-.508-4.851 2.029-4.393l17.448 3.145-2.636-16.286c-.368-2.275 2.275-3.794 4.055-2.331l6.711 5.517c1.937 1.592 4.756-.345 3.963-2.723-3.561-10.678-9.129-20.671-16.502-29.406-6.813-8.072-12.088-17.222-15.662-26.99-3.571-9.765-5.438-20.16-5.438-30.724v-45.63-19.269h-36.176v19.269 45.63c.004 21.125-7.474 41.571-21.1 57.714-6.813 8.072-12.088 17.222-15.662 26.99-3.574 9.769-5.441 20.163-5.441 30.727v36.368c0 2.761 2.239 5 5 5h88.218c2.301-.001 4.306-1.573 4.855-3.809z" fill="#389f4d"/></g></g><g><path d="m231.884 468.507v-41.368c0-21.128 7.474-41.571 21.104-57.718 13.626-16.143 21.097-36.589 21.1-57.714v-45.63-19.269h-36.176v19.269 45.63c.004 21.125-7.474 41.571-21.1 57.714-6.813 8.072-12.088 17.222-15.662 26.99-3.574 9.769-5.441 20.163-5.441 30.727v36.368c0 2.761 2.239 5 5 5h31.175z" fill="#288c38"/></g><g><path d="m275.595 251.333h-39.189c-2.497 0-4.522-2.024-4.522-4.522v-9.044c0-2.497 2.024-4.522 4.522-4.522h39.189c2.497 0 4.522 2.024 4.522 4.522v9.044c-.001 2.498-2.025 4.522-4.522 4.522z" fill="#389f4d"/></g></g></g></g></svg>