<?xml version="1.0" standalone="no"?>
<!DOCTYPE svg PUBLIC "-//W3C//DTD SVG 20010904//EN"
 "http://www.w3.org/TR/2001/REC-SVG-20010904/DTD/svg10.dtd">
<svg version="1.0" xmlns="http://www.w3.org/2000/svg"
 width="512.000000pt" height="512.000000pt" viewBox="0 0 512.000000 512.000000"
 preserveAspectRatio="xMidYMid meet">

<g transform="translate(0.000000,512.000000) scale(0.100000,-0.100000)"
fill="#000000" stroke="none">
<path d="M876 5097 c-76 -43 -77 -50 -74 -412 l3 -320 508 -909 c279 -500 507
-912 507 -916 0 -4 -24 -23 -52 -42 -167 -112 -342 -315 -441 -513 -189 -379
-186 -867 8 -1233 71 -133 134 -220 237 -328 200 -208 449 -344 735 -401 132
-26 395 -24 530 5 417 90 772 367 958 747 189 387 185 845 -13 1228 -91 179
-248 363 -408 479 -40 29 -73 56 -73 59 -1 3 227 415 507 915 l507 909 3 320
c3 362 2 369 -74 412 l-39 23 -1645 0 -1645 0 -39 -23z m1064 -1209 c0 -512
-3 -929 -6 -926 -3 4 -192 341 -420 750 l-414 743 0 183 0 182 420 0 420 0 0
-932z m940 -118 c0 -577 -4 -1050 -8 -1050 -5 0 -53 7 -108 15 -126 19 -282
19 -408 0 -55 -8 -103 -15 -108 -15 -4 0 -8 473 -8 1050 l0 1050 320 0 320 0
0 -1050z m1140 868 l0 -183 -414 -743 c-228 -409 -417 -746 -420 -750 -3 -3
-6 414 -6 926 l0 932 420 0 420 0 0 -182z m-1277 -2203 c476 -83 841 -477 886
-958 50 -526 -288 -1006 -806 -1144 -87 -23 -117 -26 -263 -26 -146 0 -176 3
-263 26 -669 179 -1002 906 -697 1522 150 304 437 519 773 580 99 18 267 18
370 0z"/>
<path d="M2516 1820 c-16 -5 -40 -19 -54 -32 -50 -46 -52 -63 -52 -415 0 -292
2 -332 18 -363 53 -107 210 -107 265 0 16 32 17 66 15 377 -3 327 -4 343 -24
369 -43 58 -107 83 -168 64z"/>
</g>
</svg>
