<?xml version="1.0" standalone="no"?>
<!DOCTYPE svg PUBLIC "-//W3C//DTD SVG 20010904//EN"
 "http://www.w3.org/TR/2001/REC-SVG-20010904/DTD/svg10.dtd">
<svg version="1.0" xmlns="http://www.w3.org/2000/svg"
 width="512.000000pt" height="512.000000pt" viewBox="0 0 512.000000 512.000000"
 preserveAspectRatio="xMidYMid meet">

<g transform="translate(0.000000,512.000000) scale(0.100000,-0.100000)"
fill="#000000" stroke="none">
<path d="M78 4929 c-23 -12 -46 -35 -58 -59 -20 -39 -20 -55 -20 -2030 0
-2177 -3 -2062 57 -2204 75 -179 230 -334 408 -409 142 -60 38 -57 2095 -57
2033 0 1947 -2 2084 51 172 68 333 223 412 398 63 139 58 19 61 1668 3 1495 3
1503 -17 1543 -13 26 -34 47 -60 60 -38 19 -58 20 -625 20 l-585 0 0 460 c0
442 -1 462 -20 500 -13 26 -34 47 -60 60 -39 20 -54 20 -1837 20 -1770 -1
-1799 -1 -1835 -21z m3455 -2211 c2 -1743 4 -1938 19 -1983 28 -89 57 -155 93
-211 l35 -54 -1485 0 c-1068 0 -1499 3 -1537 11 -172 37 -310 175 -347 347 -8
38 -11 570 -11 1937 l0 1885 1615 0 1615 0 3 -1932z m1287 -473 c0 -961 -3
-1380 -11 -1417 -16 -77 -74 -180 -129 -232 -56 -53 -144 -99 -218 -115 -68
-14 -206 -14 -274 0 -172 37 -310 175 -347 347 -8 38 -11 438 -11 1417 l0
1365 495 0 495 0 0 -1365z"/>
<path d="M728 4209 c-43 -22 -78 -81 -78 -129 0 -50 35 -107 80 -130 39 -20
56 -20 1190 -20 1134 0 1151 0 1190 20 45 23 80 80 80 130 0 50 -35 107 -80
130 -39 20 -56 20 -1192 20 -1128 -1 -1154 -1 -1190 -21z"/>
<path d="M728 3569 c-43 -22 -78 -81 -78 -129 0 -50 35 -107 80 -130 39 -20
56 -20 1190 -20 1134 0 1151 0 1190 20 45 23 80 80 80 130 0 50 -35 107 -80
130 -39 20 -56 20 -1192 20 -1128 -1 -1154 -1 -1190 -21z"/>
<path d="M1848 2929 c-23 -12 -46 -35 -58 -59 -19 -38 -20 -58 -20 -630 0
-572 1 -592 20 -630 13 -26 34 -47 60 -60 38 -19 58 -20 630 -20 572 0 592 1
630 20 26 13 47 34 60 60 19 38 20 58 20 630 0 572 -1 592 -20 630 -13 26 -34
47 -60 60 -38 19 -57 20 -632 20 -571 -1 -594 -2 -630 -21z m1042 -689 l0
-410 -410 0 -410 0 0 410 0 410 410 0 410 0 0 -410z"/>
<path d="M728 2689 c-43 -22 -78 -81 -78 -129 0 -50 35 -107 80 -130 36 -19
58 -20 310 -20 252 0 274 1 310 20 45 23 80 80 80 130 0 50 -35 107 -80 130
-37 19 -58 20 -312 20 -252 -1 -276 -2 -310 -21z"/>
<path d="M728 2049 c-43 -22 -78 -81 -78 -129 0 -50 35 -107 80 -130 36 -19
58 -20 310 -20 252 0 274 1 310 20 45 23 80 80 80 130 0 50 -35 107 -80 130
-37 19 -58 20 -312 20 -252 -1 -276 -2 -310 -21z"/>
<path d="M728 1169 c-43 -22 -78 -81 -78 -129 0 -50 35 -107 80 -130 39 -20
56 -20 1190 -20 1134 0 1151 0 1190 20 45 23 80 80 80 130 0 50 -35 107 -80
130 -39 20 -56 20 -1192 20 -1128 -1 -1154 -1 -1190 -21z"/>
</g>
</svg>
