<?xml version="1.0" standalone="no"?>
<!DOCTYPE svg PUBLIC "-//W3C//DTD SVG 20010904//EN"
 "http://www.w3.org/TR/2001/REC-SVG-20010904/DTD/svg10.dtd">
<svg version="1.0" xmlns="http://www.w3.org/2000/svg"
 width="512.000000pt" height="512.000000pt" viewBox="0 0 512.000000 512.000000"
 preserveAspectRatio="xMidYMid meet">
<metadata>
Created by potrace 1.16, written by Peter Selinger 2001-2019
</metadata>
<g transform="translate(0.000000,512.000000) scale(0.100000,-0.100000)"
fill="#000000" stroke="none">
<path d="M2326 5104 c-160 -29 -341 -103 -491 -202 -90 -59 -278 -247 -338
-338 -100 -153 -172 -330 -202 -498 -12 -70 -15 -171 -15 -477 l0 -389 -124 0
c-94 0 -139 -5 -185 -19 -147 -46 -272 -172 -315 -320 -14 -49 -16 -189 -16
-1262 0 -1157 1 -1210 19 -1268 46 -147 172 -272 320 -315 49 -14 217 -16
1581 -16 1364 0 1532 2 1581 16 148 43 274 168 320 315 18 58 19 111 19 1268
0 1073 -2 1213 -16 1262 -43 148 -168 274 -315 320 -46 14 -91 19 -185 19
l-124 0 0 389 c0 428 -6 491 -61 656 -67 199 -158 345 -313 501 -198 197 -417
313 -683 359 -108 19 -350 18 -457 -1z m398 -325 c347 -56 651 -329 751 -675
35 -119 45 -258 45 -606 l0 -298 -961 0 -961 0 5 378 c4 282 9 395 21 447 76
353 331 630 673 731 136 39 274 47 427 23z m1300 -1909 c49 -11 85 -37 111
-81 20 -33 20 -52 20 -1189 0 -1137 0 -1156 -20 -1189 -26 -44 -62 -70 -111
-81 -52 -12 -2876 -12 -2928 0 -49 11 -85 37 -111 81 -20 33 -20 52 -20 1189
0 1137 0 1156 20 1189 25 42 62 71 106 81 48 11 2885 12 2933 0z"/>
<path d="M2426 2330 c-338 -108 -402 -571 -106 -768 34 -23 66 -42 71 -42 5 0
9 -125 9 -281 0 -269 1 -283 21 -316 43 -70 149 -94 222 -50 77 47 77 47 77
365 0 157 4 282 9 282 5 0 37 19 71 42 247 164 254 535 13 708 -108 77 -260
101 -387 60z m183 -324 c67 -35 65 -143 -4 -174 -51 -23 -107 -7 -131 39 -47
91 44 182 135 135z"/>
</g>
</svg>
