<svg id="Layer_1" enable-background="new 0 0 256 256" height="512" viewBox="0 0 256 256" width="512" xmlns="http://www.w3.org/2000/svg"><path d="m211.486 252h-166.972c-6.385 0-11.561-5.176-11.561-11.561 0-6.385 5.176-11.561 11.561-11.561h166.972c6.385 0 11.561 5.176 11.561 11.561 0 6.385-5.176 11.561-11.561 11.561z" fill="#ff4397"/><path d="m211.486 27.122h-166.972c-6.385 0-11.561-5.176-11.561-11.561 0-6.385 5.176-11.561 11.561-11.561h166.972c6.385 0 11.561 5.176 11.561 11.561 0 6.385-5.176 11.561-11.561 11.561z" fill="#ff4397"/><path d="m44.54 27.122h166.919v201.756h-166.919z" fill="#7bac51"/><path d="m211.486 4h-10c6.385 0 11.561 5.176 11.561 11.561 0 6.385-5.176 11.561-11.561 11.561h10c6.385 0 11.561-5.176 11.561-11.561 0-6.385-5.176-11.561-11.561-11.561z" fill="#e12579"/><path d="m44.514 27.122h10c-6.385 0-11.561-5.176-11.561-11.561 0-6.385 5.176-11.561 11.561-11.561h-10c-6.385 0-11.561 5.176-11.561 11.561 0 6.385 5.176 11.561 11.561 11.561z" fill="#ff61b5"/><path d="m211.486 228.878h-10c6.385 0 11.561 5.176 11.561 11.561 0 6.385-5.176 11.561-11.561 11.561h10c6.385 0 11.561-5.176 11.561-11.561 0-6.385-5.176-11.561-11.561-11.561z" fill="#e12579"/><path d="m44.514 252h10c-6.385 0-11.561-5.176-11.561-11.561 0-6.385 5.176-11.561 11.561-11.561h-10c-6.385 0-11.561 5.176-11.561 11.561 0 6.385 5.176 11.561 11.561 11.561z" fill="#ff61b5"/><path d="m201.46 27.122h10v201.756h-10z" fill="#5d8e33"/><path d="m44.54 27.122h10v201.756h-10z" fill="#99ca6f"/><path d="m210.512 130h-165.024c-1.104 0-2-.895-2-2 0-1.104.896-2 2-2h165.024c1.104 0 2 .896 2 2 0 1.105-.895 2-2 2z" fill="#690589"/><circle cx="128" cy="128" fill="#f4efed" r="50.277"/><g fill="#690589"><path d="m211.486 29.122h-166.972c-7.478 0-13.561-6.083-13.561-13.561s6.083-13.561 13.561-13.561h166.973c7.478 0 13.561 6.083 13.561 13.561-.001 7.478-6.084 13.561-13.562 13.561zm-166.972-23.122c-5.272 0-9.561 4.289-9.561 9.561s4.289 9.561 9.561 9.561h166.973c5.272 0 9.561-4.289 9.561-9.561s-4.289-9.561-9.561-9.561z"/><path d="m211.459 230.878h-166.919c-1.104 0-2-.895-2-2v-201.756c0-1.105.896-2 2-2h166.919c1.105 0 2 .895 2 2v201.756c0 1.104-.895 2-2 2zm-164.919-4h162.919v-197.756h-162.919z"/><path d="m52.29 89.463c-1.105 0-2-.896-2-2v-12c0-1.104.895-2 2-2 1.104 0 2 .896 2 2v12c0 1.105-.896 2-2 2z"/><path d="m211.486 254h-166.972c-7.478 0-13.561-6.083-13.561-13.561s6.084-13.561 13.561-13.561h166.973c7.478 0 13.561 6.083 13.561 13.561-.001 7.478-6.084 13.561-13.562 13.561zm-166.972-23.122c-5.272 0-9.561 4.289-9.561 9.561s4.289 9.561 9.561 9.561h166.973c5.272 0 9.561-4.289 9.561-9.561s-4.289-9.561-9.561-9.561z"/><path d="m128 180.277c-28.826 0-52.277-23.451-52.277-52.277s23.451-52.277 52.277-52.277 52.277 23.451 52.277 52.277-23.451 52.277-52.277 52.277zm0-100.554c-26.62 0-48.277 21.657-48.277 48.277s21.657 48.277 48.277 48.277 48.277-21.657 48.277-48.277-21.657-48.277-48.277-48.277z"/><path d="m210.512 59.111h-165.024c-1.104 0-2-.896-2-2s.896-2 2-2h165.024c1.104 0 2 .896 2 2s-.895 2-2 2z"/><path d="m210.512 200.889h-165.024c-1.104 0-2-.896-2-2 0-1.105.896-2 2-2h165.024c1.104 0 2 .895 2 2s-.895 2-2 2z"/></g><path d="m112.165 128c-9.439 0-15.339-10.218-10.619-18.393l10.619-18.393 10.619 18.393c4.72 8.175-1.18 18.393-10.619 18.393z" fill="#fcc24c"/><path d="m106.184 109.607 8.3-14.376-2.319-4.017-10.619 18.393c-4.719 8.175 1.18 18.393 10.619 18.393.801 0 1.574-.079 2.319-.219-8.042-1.506-12.62-10.693-8.3-18.174z" fill="#fce06a"/><path d="m112.165 130c-5.156 0-9.773-2.666-12.352-7.131-2.578-4.465-2.578-9.796 0-14.262l10.62-18.393c.357-.619 1.018-1 1.732-1s1.375.381 1.732 1l10.619 18.393c2.578 4.465 2.578 9.797 0 14.262s-7.195 7.131-12.351 7.131zm0-34.786-8.888 15.393c-1.855 3.213-1.855 7.049 0 10.262s5.177 5.131 8.887 5.131c3.71 0 7.032-1.918 8.887-5.131s1.855-7.049 0-10.262z" fill="#690589"/><path d="m138.114 164.786c13.837 0 22.485-14.979 15.566-26.962l-15.566-26.962-15.566 26.962c-6.918 11.983 1.729 26.962 15.566 26.962z" fill="#fcc24c"/><path d="m146.882 137.824-12.167-21.074 3.4-5.888 15.566 26.962c6.918 11.983-1.73 26.962-15.566 26.962-1.174 0-2.307-.116-3.4-.32 11.789-2.208 18.498-15.675 12.167-26.642z" fill="#dea42e"/><path d="m138.114 166.786c-7.221 0-13.688-3.733-17.298-9.987-3.611-6.253-3.611-13.721 0-19.975l15.566-26.961c.357-.619 1.018-1 1.732-1s1.375.381 1.732 1l15.566 26.961c3.611 6.254 3.611 13.721 0 19.975-3.61 6.254-10.077 9.987-17.298 9.987zm0-51.923-13.834 23.961c-2.888 5.001-2.888 10.974 0 15.975s8.06 7.987 13.834 7.987 10.947-2.986 13.834-7.987c2.888-5.001 2.888-10.973 0-15.975z" fill="#690589"/></svg>