<?xml version="1.0" standalone="no"?>
<!DOCTYPE svg PUBLIC "-//W3C//DTD SVG 20010904//EN"
 "http://www.w3.org/TR/2001/REC-SVG-20010904/DTD/svg10.dtd">
<svg version="1.0" xmlns="http://www.w3.org/2000/svg"
 width="512.000000pt" height="512.000000pt" viewBox="0 0 512.000000 512.000000"
 preserveAspectRatio="xMidYMid meet">
<metadata>
Created by potrace 1.16, written by Peter Selinger 2001-2019
</metadata>
<g transform="translate(0.000000,512.000000) scale(0.100000,-0.100000)"
fill="#000000" stroke="none">
<path d="M2300 5114 c-414 -49 -807 -187 -1125 -395 -60 -39 -116 -72 -123
-73 -7 -1 -65 64 -130 144 -102 126 -122 146 -156 155 -31 7 -45 6 -74 -10
-34 -19 -45 -43 -354 -770 -266 -628 -318 -756 -313 -785 5 -42 54 -90 91 -90
34 0 1559 268 1601 281 40 13 63 48 63 96 0 45 -3 49 -132 210 -54 67 -98 126
-98 130 0 11 138 94 245 146 415 205 906 232 1345 75 135 -48 190 -57 224 -35
59 39 58 133 -2 173 -68 46 -294 116 -482 149 -131 22 -380 30 -515 16 -335
-37 -636 -146 -913 -330 -136 -91 -162 -118 -162 -168 0 -45 8 -59 107 -182
46 -57 82 -106 79 -108 -4 -4 -1170 -212 -1172 -209 -4 3 462 1096 467 1096 3
0 45 -49 93 -110 48 -60 97 -117 109 -125 36 -25 80 -18 138 22 275 189 399
259 604 338 252 98 488 144 766 152 312 9 543 -24 824 -118 601 -200 1089
-628 1371 -1204 163 -334 234 -647 234 -1034 l0 -188 -192 -34 c-106 -19 -194
-35 -195 -35 -1 1 3 35 7 76 49 422 -72 910 -317 1280 -95 144 -131 180 -176
180 -20 0 -47 -5 -61 -11 -26 -12 -56 -63 -56 -97 0 -10 40 -79 89 -153 168
-253 257 -473 303 -749 19 -118 16 -404 -6 -547 -22 -142 -16 -174 40 -200 31
-15 49 -13 357 40 179 31 336 62 350 68 52 24 60 63 65 311 3 136 0 272 -7
340 -50 485 -246 956 -558 1343 -103 128 -321 340 -443 431 -344 257 -698 409
-1135 485 -97 17 -170 22 -380 24 -143 2 -276 1 -295 -1z"/>
<path d="M3653 4145 c-42 -18 -67 -66 -58 -112 15 -82 116 -113 176 -54 80 80
-14 212 -118 166z"/>
<path d="M1405 3175 c-142 -26 -239 -57 -269 -87 -28 -28 -29 -32 -23 -98 3
-38 22 -116 41 -173 67 -201 156 -346 289 -474 136 -129 265 -202 446 -251 85
-22 115 -25 266 -25 117 0 191 4 238 15 l67 16 0 -652 0 -652 -82 8 c-193 18
-391 75 -585 168 -358 171 -637 447 -816 805 -168 336 -221 695 -161 1083 16
103 16 115 2 146 -32 66 -41 66 -411 2 -182 -32 -341 -65 -353 -73 -12 -8 -28
-29 -34 -46 -18 -47 -25 -460 -11 -599 50 -485 246 -956 558 -1343 104 -129
321 -340 446 -434 371 -277 807 -450 1269 -500 142 -16 453 -14 598 4 389 49
748 180 1083 398 74 48 111 67 118 60 6 -6 61 -73 122 -149 97 -121 117 -140
151 -149 31 -7 45 -6 74 10 34 19 45 43 354 770 267 628 318 756 314 785 -6
42 -55 90 -92 90 -34 0 -1559 -268 -1601 -281 -43 -14 -63 -44 -63 -94 0 -47
2 -50 132 -212 54 -67 98 -126 98 -130 0 -4 -35 -29 -77 -55 -161 -97 -331
-170 -498 -212 -87 -21 -142 -31 -302 -51 l-33 -4 0 653 0 654 68 -16 c46 -11
120 -15 237 -15 151 0 181 3 266 25 181 49 310 122 446 251 133 128 222 273
289 474 19 57 38 134 41 171 7 92 -10 113 -120 147 -261 79 -547 74 -770 -13
-213 -83 -391 -240 -510 -448 -23 -41 -44 -74 -47 -74 -3 0 -23 32 -44 70
-148 263 -390 441 -681 501 -107 22 -321 24 -430 4z m430 -219 c148 -40 321
-152 410 -265 85 -108 176 -289 179 -355 1 -28 -2 -31 -54 -44 -33 -8 -114
-15 -205 -15 -171 -2 -250 15 -379 79 -141 71 -254 178 -341 326 -47 78 -116
251 -105 262 3 2 37 11 75 20 92 20 334 16 420 -8z m1863 8 c42 -9 79 -18 82
-20 11 -11 -58 -184 -105 -262 -118 -199 -284 -327 -505 -388 -82 -23 -335
-24 -420 -2 -52 13 -55 16 -54 44 3 66 94 247 179 355 103 132 291 244 466
278 76 15 274 12 357 -5z m-3103 -161 c-13 -36 -17 -329 -6 -438 66 -603 373
-1116 865 -1447 250 -167 537 -277 841 -320 129 -18 445 -15 570 6 309 52 569
156 823 328 117 80 142 107 142 155 0 45 -7 56 -106 181 -46 58 -82 108 -80
110 4 4 1170 211 1172 208 4 -3 -462 -1096 -467 -1096 -3 0 -45 49 -93 110
-48 60 -97 117 -109 125 -36 25 -80 18 -138 -22 -269 -185 -390 -254 -589
-333 -128 -51 -315 -103 -470 -131 -164 -30 -499 -37 -670 -15 -438 58 -846
228 -1184 494 -99 77 -320 301 -393 397 -165 219 -300 472 -377 705 -84 257
-116 464 -116 750 l0 188 73 12 c39 7 115 20 167 30 129 24 154 25 145 3z"/>
</g>
</svg>
