<svg height="511pt" viewBox="-51 1 511 511.99901" width="511pt" xmlns="http://www.w3.org/2000/svg"><path d="m.5 437.03125.003906-421.925781c0-8.277344 6.710938-14.992188 14.992188-14.992188l315.863281-.113281c8.28125-.00390625 15 6.710938 15 14.992188v421.640624c0 8.273438-6.703125 14.984376-14.976563 14.996094l-315.871093.398438c-8.289063.007812-15.011719-6.707032-15.011719-14.996094zm330.863281-.398438h.011719zm0 0" fill="#dfeefa"/><path d="m331.359375 0-158.929687.0546875v451.7734375l158.953124-.199219c8.273438-.011718 14.976563-6.722656 14.976563-14.996094v-421.640624c0-8.28125-6.71875-14.99609425-15-14.992188zm0 0" fill="#c9dff7"/><path d="m60.472656 497.007812.007813-421.925781c0-8.28125 6.710937-14.996093 14.992187-14.996093h210.910156c3.988282 0 7.808594 1.589843 10.621094 4.410156l104.957032 105.34375c2.800781 2.8125 4.371093 6.617187 4.371093 10.582031v316.1875c0 8.273437-6.699219 14.980469-14.972656 14.992187l-315.871094.398438c-8.289062.011719-15.015625-6.707031-15.015625-14.992188zm330.867188-.398437h.007812zm0 0" fill="#dfeefa"/><path d="m60.472656 497.007812.007813-421.925781c0-8.28125 6.710937-14.996093 14.992187-14.996093h217.136719l113.722656 114.144531v322.378906c0 8.273437-6.699219 14.980469-14.972656 14.992187l-315.871094.398438c-8.289062.011719-15.015625-6.707031-15.015625-14.992188zm330.867188-.398437h.007812zm0 0" fill="#f0f6fe"/><path d="m233.039062 60.085938v450.078124h164.675782c5.089844-2.398437 8.617187-7.558593 8.617187-13.554687v-322.378906l-113.722656-114.144531zm0 0" fill="#dfeefa"/><path d="m409.390625 177.367188-101.996094-.054688c-8.289062-.003906-15.003906-6.734375-14.984375-15.023438l.199219-102.203124zm0 0" fill="#f2f8fb"/><path d="m341.722656 289.550781c-5.855468-5.855469-15.347656-5.855469-21.203125 0l-1.519531 1.515625c-2.882812-19.792968-12.003906-38.070312-26.394531-52.460937-36.46875-36.46875-95.808594-36.46875-132.277344 0-5.855469 5.855469-5.855469 15.347656 0 21.203125 5.855469 5.855468 15.347656 5.855468 21.203125 0 24.777344-24.773438 65.089844-24.773438 89.867188 0 7.976562 7.976562 13.558593 17.714844 16.417968 28.316406-5.871094-4.367188-14.199218-3.902344-19.527344 1.425781-5.855468 5.855469-5.855468 15.347657 0 21.203125l26.113282 26.113282c2.929687 2.929687 6.765625 4.390624 10.601562 4.390624 3.835938 0 7.675782-1.460937 10.601563-4.390624l26.113281-26.113282c5.859375-5.855468 5.859375-15.347656.003906-21.203125zm0 0" fill="#a7d533"/><path d="m285.03125 374.722656c-12 12-27.960938 18.609375-44.933594 18.609375s-32.929687-6.609375-44.933594-18.609375c-7.976562-7.976562-13.558593-17.714844-16.414062-28.316406 2.644531 1.96875 5.78125 2.96875 8.925781 2.96875 3.835938 0 7.671875-1.464844 10.601563-4.394531 5.855468-5.855469 5.855468-15.347657 0-21.203125l-26.117188-26.113282c-5.851562-5.855468-15.347656-5.855468-21.203125 0l-26.113281 26.113282c-5.855469 5.855468-5.855469 15.347656 0 21.203125s15.347656 5.855469 21.203125 0l1.519531-1.515625c2.882813 19.792968 12.003906 38.070312 26.394532 52.460937 17.667968 17.664063 41.152343 27.394531 66.136718 27.394531s48.472656-9.730468 66.136719-27.394531c5.855469-5.855469 5.855469-15.347656 0-21.203125-5.855469-5.855468-15.347656-5.855468-21.203125 0zm0 0" fill="#a7d533"/><g fill="#49ba6e"><path d="m320.515625 289.550781-1.515625 1.515625c-2.886719-19.792968-12.007812-38.070312-26.394531-52.460937-16.566407-16.566407-37.851563-25.578125-59.570313-27.09375v30.0625c14.019532 1.445312 27.644532 7.519531 38.363282 18.234375 7.976562 7.976562 13.558593 17.714844 16.417968 28.316406-5.871094-4.367188-14.199218-3.902344-19.527344 1.425781-5.855468 5.855469-5.855468 15.347657 0 21.203125l26.113282 26.113282c2.929687 2.929687 6.765625 4.390624 10.601562 4.390624 3.835938 0 7.675782-1.460937 10.601563-4.390624l26.113281-26.113282c5.855469-5.855468 5.855469-15.347656.003906-21.203125-5.855468-5.855469-15.351562-5.855469-21.207031 0zm0 0"/><path d="m285.03125 374.722656c-12 12-27.960938 18.609375-44.933594 18.609375-2.375 0-4.730468-.140625-7.058594-.398437v30.125c2.335938.175781 4.691407.261718 7.058594.261718 24.984375 0 48.472656-9.730468 66.140625-27.394531 5.851563-5.855469 5.851563-15.347656 0-21.203125-5.859375-5.855468-15.351562-5.855468-21.207031 0zm0 0"/></g></svg>