<svg id="Capa_1" enable-background="new 0 0 511.08 511.08" height="512" viewBox="0 0 511.08 511.08" width="512" xmlns="http://www.w3.org/2000/svg"><g id="XMLID_250_"><path id="XMLID_130_" d="m410.901 13.093h77.2v96.97h-77.2z" fill="#09607d" transform="matrix(.707 -.707 .707 .707 88.113 335.882)"/><path id="XMLID_1332_" d="m428.125 54.674h77.2v48.255h-77.2z" fill="#07485e" transform="matrix(.707 -.707 .707 .707 80.979 353.105)"/><path id="XMLID_1291_" d="m466.99 143.334-7.368-26.945-64.932-64.932-26.945-7.368c-28.856-7.891-59.923.349-81.078 21.502-6.645 6.646-12.084 14.306-16.166 22.769-10.742 22.27-25.054 42.426-42.537 59.908l-125.659 125.663c-11.785 11.785-25.372 21.432-40.384 28.673-15.72 7.583-29.949 17.686-42.293 30.029l-8.764 8.764c-7.006 7.005-10.864 16.32-10.864 26.227s3.858 19.222 10.863 26.228l106.365 106.365c7.005 7.005 16.32 10.863 26.227 10.863s19.222-3.858 26.227-10.863l8.765-8.765c12.342-12.342 22.445-26.572 30.028-42.293 7.242-15.012 16.889-28.599 28.673-40.384l125.662-125.661c17.482-17.483 37.639-31.794 59.908-42.536 8.464-4.083 16.124-9.522 22.768-16.166 21.156-21.154 29.395-52.221 21.504-81.078z" fill="#a5e887"/><path id="XMLID_1335_" d="m459.623 116.389-32.303-32.303-363.112 363.111 53.02 53.02c7.005 7.005 16.32 10.863 26.227 10.863s19.222-3.858 26.227-10.863l8.765-8.765c12.342-12.342 22.445-26.572 30.028-42.293 7.242-15.012 16.889-28.599 28.673-40.384l125.662-125.661c17.482-17.483 37.639-31.794 59.908-42.536 8.464-4.083 16.124-9.522 22.768-16.166 21.154-21.154 29.394-52.221 21.503-81.078z" fill="#00cc76"/><path id="XMLID_1317_" d="m172.742 175.86h134.256v190.7h-134.256z" fill="#ff712f" transform="matrix(.707 -.707 .707 .707 -121.518 249.049)"/><path id="XMLID_1337_" d="m206.535 257.442h134.256v95.12h-134.256z" fill="#ff4b00" transform="matrix(.707 -.707 .707 .707 -135.515 282.842)"/></g></svg>