<?xml version="1.0" standalone="no"?>
<!DOCTYPE svg PUBLIC "-//W3C//DTD SVG 20010904//EN"
 "http://www.w3.org/TR/2001/REC-SVG-20010904/DTD/svg10.dtd">
<svg version="1.0" xmlns="http://www.w3.org/2000/svg"
 width="512.000000pt" height="512.000000pt" viewBox="0 0 512.000000 512.000000"
 preserveAspectRatio="xMidYMid meet">

<g transform="translate(0.000000,512.000000) scale(0.100000,-0.100000)"
fill="#000000" stroke="none">
<path d="M2370 5105 c-287 -40 -550 -173 -761 -384 -397 -397 -506 -972 -283
-1491 129 -300 394 -565 694 -694 427 -184 901 -143 1285 111 133 88 290 245
378 378 299 453 299 1037 0 1490 -88 133 -245 290 -378 378 -278 183 -607 258
-935 212z m333 -296 c415 -62 750 -354 865 -754 160 -552 -165 -1132 -723
-1293 -552 -160 -1132 165 -1293 723 -190 657 309 1325 996 1334 46 1 116 -4
155 -10z"/>
<path d="M1960 2104 c-255 -22 -555 -106 -785 -222 -313 -157 -622 -427 -823
-717 l-42 -61 0 -552 0 -552 2250 0 2250 0 0 553 0 553 -62 86 c-353 484 -827
782 -1413 889 -114 21 -150 22 -725 24 -333 1 -625 1 -650 -1z m1208 -305
c523 -57 990 -319 1301 -731 l41 -55 0 -356 0 -357 -1950 0 -1950 0 0 357 0
356 41 55 c270 357 676 614 1109 701 58 12 139 25 180 30 112 13 1113 13 1228
0z"/>
</g>
</svg>
